<svg width="1920" height="362" viewBox="0 0 1920 362" fill="none" xmlns="http://www.w3.org/2000/svg">
<path d="M465.287 4.99756C189.329 -14.6555 123.548 29.9976 -3.9671 29.9977V238.998H1918.96V12.9976C1618.02 22.0226 1742.98 30.0882 1383.39 12.9976C1215.07 4.99761 1281.38 45.837 1026.35 60.9976C776.423 66.9976 771.81 26.8274 465.287 4.99756Z" fill="#355BA5"/>
<path d="M1395.31 85.837C1671.27 66.1839 1735.33 52.9977 1918.96 69.9977V278.998H-3.96729V52.9976C296.968 62.0227 172.012 70.0882 531.595 52.9976C699.914 44.9976 633.607 85.837 888.636 100.998C1138.57 106.998 1088.79 107.667 1395.31 85.837Z" fill="#88A5DE"/>
<path d="M-4.00873 196.732C41.7247 174.007 193.3 127.409 413.864 146.997C573.841 161.205 596.698 161.609 598.987 161.282C597.86 160.939 599.834 161.161 598.987 161.282C599.477 161.431 600.552 161.687 602.7 162.103C709.829 164.277 920.472 160.375 1102.26 122.983C1326.34 76.8924 1478.27 89.4404 1723.14 93.9997C1835.3 86.967 1721.28 103.058 1920 75.9997L1920 339.72L-4.00937 339.72L-4.00873 196.732Z" fill="#DEBF88"/>
<path d="M-3.9671 218.453C41.9382 195.741 193.866 149.186 414.281 168.839C574.151 183.094 597.005 183.505 599.296 183.178C598.171 182.835 600.145 183.057 599.296 183.178C599.785 183.327 600.858 183.583 603.003 184C710.116 186.205 920.787 182.365 1102.86 145.025C1327.29 99.0001 1475.2 103.369 1720.03 108C1832.25 101 1720.03 113 1918.96 86V362H-3.9671V218.453Z" fill="#FFE7BC"/>
<path d="M-3.9671 218.453C41.9382 195.741 193.866 149.186 414.281 168.839C659.11 190.669 582.601 180.031 603.003 184C710.116 186.205 920.787 182.365 1102.86 145.025C1327.29 99.0001 1475.2 103.369 1720.03 108C1832.25 101 1720.03 113 1918.96 86V362H-3.9671V218.453Z" stroke="#FFE7BC"/>
<ellipse cx="1839.56" cy="223.5" rx="2.51042" ry="2.5" fill="#DEBF88"/>
<ellipse rx="2.50428" ry="2.50614" transform="matrix(0.642421 0.766352 -0.768974 0.63928 1595.89 311.792)" fill="#DEBF88"/>
<ellipse rx="2.50428" ry="2.50614" transform="matrix(0.642421 0.766352 -0.768974 0.63928 1590.87 330.792)" fill="#DEBF88"/>
<ellipse cx="1837.05" cy="236" rx="4.01667" ry="4" fill="#DEBF88"/>
<ellipse rx="4.00685" ry="4.00983" transform="matrix(0.642421 0.766352 -0.768974 0.63928 1584.65 317.883)" fill="#DEBF88"/>
<ellipse cx="1851.61" cy="229.5" rx="5.52292" ry="5.5" fill="#DEBF88"/>
<ellipse rx="5.50942" ry="5.51352" transform="matrix(0.642421 0.766352 -0.768974 0.63928 1598.99 324.849)" fill="#DEBF88"/>
<ellipse rx="2.51037" ry="2.50005" transform="matrix(-0.997536 0.0701536 -0.0707365 -0.997495 732.368 290.612)" fill="#DEBF88"/>
<ellipse rx="2.50001" ry="2.51041" transform="matrix(0.0240104 -0.999712 0.999717 0.0238117 1246.69 180.912)" fill="#DEBF88"/>
<ellipse rx="2.50001" ry="2.51041" transform="matrix(0.0240104 -0.999712 0.999717 0.0238117 1263.04 169.917)" fill="#DEBF88"/>
<ellipse rx="4.01658" ry="4.00008" transform="matrix(-0.997536 0.0701536 -0.0707365 -0.997495 733.988 277.967)" fill="#DEBF88"/>
<ellipse rx="4.00001" ry="4.01666" transform="matrix(0.0240104 -0.999712 0.999717 0.0238117 1259.18 183.71)" fill="#DEBF88"/>
<ellipse rx="5.5228" ry="5.50011" transform="matrix(-0.997536 0.0701536 -0.0707365 -0.997495 719.923 285.472)" fill="#DEBF88"/>
<ellipse rx="8.01332" ry="7.9804" transform="matrix(-0.997536 0.0701536 -0.0707365 -0.997495 106.025 291.771)" fill="#DEBF88"/>
<ellipse rx="8.01332" ry="7.9804" transform="matrix(-0.997536 0.0701536 -0.0707365 -0.997495 98.9957 284.771)" fill="#DEBF88"/>
<ellipse rx="2.05017" ry="2.04174" transform="matrix(-0.997536 0.0701536 -0.0707365 -0.997495 110.538 278.114)" fill="#DEBF88"/>
<ellipse rx="5.50001" ry="5.5229" transform="matrix(0.0240104 -0.999712 0.999717 0.0238117 1253 169.059)" fill="#DEBF88"/>
</svg>
