<svg width="768" height="362" viewBox="0 0 768 362" fill="none" xmlns="http://www.w3.org/2000/svg">
<path d="M187.732 4.99756C77.8074 -14.6555 51.6041 29.9976 0.810059 29.9977V238.998H766.784V12.9976C646.91 22.0226 696.685 30.0882 553.449 12.9976C486.401 4.99761 512.814 45.837 411.226 60.9976C311.67 66.9976 309.832 26.8274 187.732 4.99756Z" fill="#355BA5"/>
<path d="M558.197 85.837C668.122 66.1839 693.641 52.9977 766.784 69.9977V278.998H0.81012V52.9976C120.684 62.0227 70.9092 70.0882 214.145 52.9976C281.193 44.9976 254.78 85.837 356.368 100.998C455.925 106.998 436.098 107.667 558.197 85.837Z" fill="#88A5DE"/>
<path d="M0.793389 196.732C19.0107 174.007 79.3889 127.409 167.248 146.998C230.973 161.206 240.078 161.609 240.99 161.282C240.541 160.94 241.327 161.161 240.99 161.282C241.185 161.431 241.613 161.687 242.469 162.103C285.142 164.277 369.049 160.375 441.464 122.983C530.722 76.8926 591.244 89.4406 688.782 94C733.46 86.9673 688.042 103.058 767.199 76L767.199 339.72L0.793357 339.72L0.793389 196.732Z" fill="#DEBF88"/>
<path d="M0.810059 218.453C19.0959 195.741 79.6145 149.186 167.414 168.839C231.097 183.094 240.2 183.505 241.113 183.178C240.665 182.835 241.451 183.057 241.113 183.178C241.308 183.327 241.735 183.583 242.59 184C285.257 186.205 369.175 182.365 441.702 145.025C531.1 99.0001 590.021 103.369 687.545 108C732.244 101 687.545 113 766.784 86V362H0.810059V218.453Z" fill="#FFE7BC"/>
<path d="M0.810059 218.453C19.0959 195.741 79.6145 149.186 167.414 168.839C264.939 190.669 234.463 180.031 242.59 184C285.257 186.205 369.175 182.365 441.702 145.025C531.1 99.0001 590.021 103.369 687.545 108C732.244 101 687.545 113 766.784 86V362H0.810059V218.453Z" stroke="#FFE7BC"/>
<circle cx="685.898" cy="223.5" r="2.5" fill="#DEBF88"/>
<circle cx="57.2496" cy="301.792" r="2.5" transform="rotate(50.1447 57.2496 301.792)" fill="#DEBF88"/>
<circle cx="52.2496" cy="320.792" r="2.5" transform="rotate(50.1447 52.2496 320.792)" fill="#DEBF88"/>
<circle cx="683.398" cy="236" r="4" fill="#DEBF88"/>
<circle cx="46.0518" cy="307.883" r="4" transform="rotate(50.1447 46.0518 307.883)" fill="#DEBF88"/>
<circle cx="697.898" cy="229.5" r="5.5" fill="#DEBF88"/>
<circle cx="60.334" cy="314.849" r="5.5" transform="rotate(50.1447 60.334 314.849)" fill="#DEBF88"/>
</svg>
