<svg width="149" height="160" viewBox="0 0 149 160" fill="none" xmlns="http://www.w3.org/2000/svg">
<g filter="url(#filter0_d)">
<path d="M75.0499 55.7541L80.6191 40.7772C80.8062 40.2854 81.1747 39.8845 81.6486 39.657C82.1226 39.4295 82.6659 39.3928 83.1666 39.5544L94.3469 43.2558C94.5894 43.3339 94.8136 43.4606 95.0057 43.6283C95.1977 43.7959 95.3537 44.001 95.4641 44.2309C95.5745 44.4608 95.6369 44.7107 95.6475 44.9655C95.6582 45.2202 95.6169 45.4744 95.5261 45.7125L89.9569 60.6894C89.6392 61.5226 89.4946 62.4122 89.532 63.3038C89.5693 64.1954 89.7877 65.0702 90.174 65.8749C90.5603 66.6796 91.1063 67.3973 91.7786 67.9841C92.4509 68.5708 93.2354 69.0144 94.0843 69.2877C94.9332 69.561 95.7178 70.0046 96.3901 70.5914C97.0624 71.1781 97.6084 71.8958 97.9946 72.7005C98.3809 73.5052 98.5994 74.38 98.6367 75.2716C98.674 76.1632 98.5294 77.0528 98.2117 77.8861L77.346 133.999C76.5976 135.966 75.1237 137.57 73.2279 138.48C71.3321 139.39 69.1589 139.537 67.156 138.89L41.0687 130.254C40.0986 129.941 39.2019 129.434 38.4336 128.764C37.6652 128.093 37.0412 127.273 36.5998 126.353C36.1583 125.434 35.9087 124.434 35.866 123.415C35.8233 122.396 35.9886 121.379 36.3517 120.427L57.2174 64.3141C57.8722 62.5929 59.1619 61.1896 60.8207 60.3933C62.4795 59.597 64.3811 59.4685 66.1336 60.0341C67.8862 60.5997 69.7877 60.4711 71.4466 59.6749C73.1054 58.8786 74.3951 57.4753 75.0499 55.7541Z" fill="#86D1CC" stroke="#1D471C" stroke-width="2" stroke-linecap="round" stroke-linejoin="round"/>
<path d="M96.5014 82.4855C93.7758 81.8732 90.9842 81.6085 88.1931 81.6977C82.2782 82.1961 76.4017 83.0733 70.5999 84.3241C66.2548 85.0345 61.6397 85.3455 57.6933 83.2951C55.5588 82.1402 53.5413 80.7802 51.6693 79.2346" stroke="#1D471C" stroke-width="2" stroke-linecap="round" stroke-linejoin="round"/>
<path d="M66.922 100.124C66.8307 98.978 66.4698 97.8695 65.8688 96.8892C65.2679 95.9089 64.444 95.0845 63.4644 94.4834C62.4849 93.8823 61.3774 93.5215 60.2326 93.4306C59.0879 93.3397 57.9382 93.5213 56.8776 93.9604C53.1918 95.5783 51.3124 100.633 52.179 106.596C52.6917 111.023 56.225 116.45 59.4042 120.341C64.463 119.178 70.8154 117.023 74.1472 113.869C78.7727 109.724 80.6521 104.67 78.8458 101.233C77.0395 97.7972 71.5475 95.9788 66.922 100.124Z" fill="#DF4FC8" stroke="#DF4FC8" stroke-width="2" stroke-linecap="round" stroke-linejoin="round"/>
<path d="M108.147 23.0294L94.3468 43.2558L86.8933 40.7881L95.1028 18.711C103.043 25.498 108.146 23.0293 108.146 23.0293C108.146 23.0293 110.892 10.3642 91.1842 6.74852C90.6597 6.66028 90.1218 6.78113 89.6858 7.08518C89.2498 7.38922 88.9503 7.85227 88.8515 8.37515L83.1666 39.5544" fill="#FAD28B"/>
<path d="M108.147 23.0294L94.3468 43.2558L86.8933 40.7881L95.1028 18.711C103.043 25.498 108.146 23.0293 108.146 23.0293C108.146 23.0293 110.892 10.3642 91.1842 6.74852C90.6597 6.66028 90.1218 6.78113 89.6858 7.08518C89.2498 7.38922 88.9503 7.85227 88.8515 8.37515L83.1666 39.5544" stroke="#715F41" stroke-width="2" stroke-linecap="round" stroke-linejoin="round"/>
</g>
<defs>
<filter id="filter0_d" x="5.87915" y="0.665741" width="127.524" height="159.167" filterUnits="userSpaceOnUse" color-interpolation-filters="sRGB">
<feFlood flood-opacity="0" result="BackgroundImageFix"/>
<feColorMatrix in="SourceAlpha" type="matrix" values="0 0 0 0 0 0 0 0 0 0 0 0 0 0 0 0 0 0 127 0"/>
<feOffset dy="4"/>
<feGaussianBlur stdDeviation="2"/>
<feColorMatrix type="matrix" values="0 0 0 0 0 0 0 0 0 0 0 0 0 0 0 0 0 0 0.25 0"/>
<feBlend mode="normal" in2="BackgroundImageFix" result="effect1_dropShadow"/>
<feBlend mode="normal" in="SourceGraphic" in2="effect1_dropShadow" result="shape"/>
</filter>
</defs>
</svg>
