<svg width="89" height="103" viewBox="0 0 89 103" fill="none" xmlns="http://www.w3.org/2000/svg">
<rect x="16.9999" width="70.2665" height="97.4664" rx="5" fill="#FAD28B"/>
<rect x="3.39996" y="70.2665" width="83.8664" height="27.1999" rx="5" fill="#FAD28B"/>
<path d="M84.9997 0H17C15.1208 0 13.6 1.52082 13.6 3.39999V67.9998H3.39999C1.52082 67.9998 0 69.5206 0 71.3998V88.3997C0 95.9005 6.09924 102 13.6 102H74.7998C74.8229 102.003 74.8494 102.003 74.8661 102C74.8899 102 74.9093 101.987 74.9331 101.986C82.3709 101.913 88.3997 95.8546 88.3997 88.3997V3.39999C88.3997 1.52082 86.8789 0 84.9997 0ZM13.6 97.4664C9.85147 97.4664 5.09999 92.1482 5.09999 88.3997V71.3998H17H63.0192V88.3997C63.0192 89.2052 62.8825 90.4555 63.0192 91.2331C63.2699 92.6594 63.4665 94.0664 64.3828 95.7664C64.0927 95.0592 64.5497 96.5164 64.3828 95.7664C66.1095 97.9769 64.0331 95.1997 64.0331 95.1997C64.2599 95.7454 67.3138 99.7334 65.7331 97.4664H13.6ZM83.8664 88.3997C83.8664 92.1482 80.2483 96.8997 76.4998 96.8997C74.6903 96.8997 72.1214 96.488 70.8331 95.1997C69.5449 93.9115 67.9998 90.2092 67.9998 88.3997V71.3998C67.9998 69.5206 66.479 67.9998 64.5998 67.9998H17V37.3999V3.39999H83.8664V88.3997Z" fill="#715F41"/>
<path d="M47.7048 50.2263C48.3325 50.7441 49.0995 50.9998 49.8631 50.9998C50.6268 50.9998 51.3938 50.7441 52.0214 50.2263C61.9491 42.0782 66.943 34.3653 66.86 27.3029C66.8134 23.1192 64.8911 20.1343 63.1081 18.7366C59.8407 16.1764 53.8177 16.3158 49.8631 20.2404C45.9052 16.3192 39.8825 16.1764 36.6219 18.7362C34.8355 20.134 32.9132 23.1192 32.8666 27.3025C32.7836 34.365 37.7772 42.0782 47.7048 50.2263Z" fill="#DF4FC8"/>
</svg>
