<svg width="1920" height="639" viewBox="0 0 1920 639" fill="none" xmlns="http://www.w3.org/2000/svg">
<path d="M1509.06 172.305C1745.56 138.736 1866.25 295.411 1910.91 344L1910.87 580L34.3328 593.919L9.21726 9.93418C205.757 66.9719 191.512 50.1911 302.728 64.6741C546.224 53.4905 604.712 26.7702 825.791 124.575C1005.15 203.922 1065.86 226.489 1172.4 221.212C1192.84 212.578 1249.81 209.104 1509.06 172.305Z" fill="#DEBF88"/>
<path d="M1922 329.026C1876.02 280.181 1723.85 180.059 1503.08 222.326C1342.96 252.982 1320.06 253.865 1317.77 253.163C1318.9 252.425 1316.92 252.903 1317.77 253.163C1317.28 253.484 1316.21 254.034 1314.06 254.931C1206.77 259.673 995.765 251.414 813.4 171.11C588.615 72.1271 440.461 81.5241 195.241 91.4828C82.8488 76.4282 195.241 102.236 -4 44.1687V637.744H1922V329.026Z" fill="#FFE7BC"/>
<path d="M1922 329.026C1876.02 280.181 1723.85 180.059 1503.08 222.326C1257.86 269.274 1334.49 246.395 1314.06 254.931C1206.77 259.673 995.765 251.414 813.4 171.11C588.615 72.1271 440.461 81.5241 195.241 91.4828C82.8488 76.4282 195.241 102.236 -3.99997 44.1687V637.744H1922V329.026Z" stroke="#FFE7BC"/>
</svg>
