<svg width="393" height="363" viewBox="0 0 393 363" fill="none" xmlns="http://www.w3.org/2000/svg">
<path d="M99.3911 4.99756C45.288 -14.6555 32.3911 29.9976 7.39111 29.9977V238.998H384.391V12.9976C325.391 22.0226 349.889 30.0882 279.391 12.9976C246.391 4.99761 259.391 45.837 209.391 60.9976C160.391 66.9976 159.487 26.8274 99.3911 4.99756Z" fill="#355BA5"/>
<path d="M281.728 85.8369C335.831 66.1839 348.391 52.9976 384.391 69.9976V278.998H7.39111V52.9976C66.3911 62.0226 41.8928 70.0881 112.391 52.9976C145.391 44.9976 132.391 85.8369 182.391 100.998C231.391 106.998 221.632 107.667 281.728 85.8369Z" fill="#88A5DE"/>
<path d="M8.99253 185.966C19.2431 163.791 51.5752 118.967 93.6277 140.995C124.129 156.973 128.58 157.632 129.046 157.331C128.845 156.976 129.219 157.22 129.046 157.331C129.134 157.485 129.33 157.753 129.726 158.193C150.571 161.563 192.024 160.029 229.744 124.734C276.239 81.2306 304.95 87.2079 352.618 94.5038C358.958 92.8691 360.973 92.7473 361.529 92.8465C361.626 92.1991 364.209 89.1297 384 77L377.415 350.281L8.99254 330L8.99253 185.966Z" fill="#DEBF88"/>
<path d="M8.39111 218.453C17.3911 195.741 47.1774 149.186 90.3911 168.839C121.734 183.094 126.215 183.505 126.664 183.178C126.444 182.835 126.831 183.057 126.664 183.178C126.76 183.327 126.971 183.583 127.391 184C148.391 186.205 189.694 182.365 225.391 145.025C269.391 99.0001 298.391 103.369 346.391 108C368.391 101 346.391 113 385.391 86V362H8.39111V218.453Z" fill="#FFE7BC"/>
<path d="M8.39111 218.453C17.3911 195.741 47.1774 149.186 90.3911 168.839C138.391 190.669 123.391 180.031 127.391 184C148.391 186.205 189.694 182.365 225.391 145.025C269.391 99.0001 298.391 103.369 346.391 108C368.391 101 346.391 113 385.391 86V362H8.39111V218.453Z" stroke="#FFE7BC"/>
<circle cx="303.891" cy="223.5" r="2.5" fill="#DEBF88"/>
<circle cx="61.2401" cy="311.792" r="2.5" transform="rotate(50.1447 61.2401 311.792)" fill="#DEBF88"/>
<circle cx="56.2401" cy="330.792" r="2.5" transform="rotate(50.1447 56.2401 330.792)" fill="#DEBF88"/>
<circle cx="301.391" cy="236" r="4" fill="#DEBF88"/>
<circle cx="50.0422" cy="317.883" r="4" transform="rotate(50.1447 50.0422 317.883)" fill="#DEBF88"/>
<circle cx="315.891" cy="229.5" r="5.5" fill="#DEBF88"/>
<circle cx="64.3242" cy="324.849" r="5.5" transform="rotate(50.1447 64.3242 324.849)" fill="#DEBF88"/>
</svg>
