<svg width="768" height="632" viewBox="0 0 768 632" fill="none" xmlns="http://www.w3.org/2000/svg">
<path d="M603.485 165.322C697.709 131.744 745.807 247.157 763.604 295.744L749.793 577.003L4.49387 588.15L4.49385 9.74367C82.8052 66.7729 78.5228 43.2655 122.836 57.7437C219.851 46.5496 243.153 19.8269 331.244 117.622C402.712 196.961 426.903 219.526 469.351 214.244C477.495 205.609 500.191 202.133 603.485 165.322Z" fill="#DEBF88"/>
<path d="M768 322.026C749.835 273.181 689.718 173.059 602.499 215.326C539.239 245.982 530.196 246.865 529.289 246.163C529.734 245.425 528.953 245.903 529.289 246.163C529.096 246.484 528.671 247.034 527.822 247.931C485.438 252.673 402.075 244.414 330.029 164.11C241.223 65.1271 182.693 74.5241 85.814 84.4828C41.4114 69.4282 85.814 95.2358 7.10022 37.1687V630.744H768V322.026Z" fill="#FFE7BC"/>
<path d="M768 322.026C749.835 273.181 689.718 173.059 602.499 215.326C505.621 262.274 535.895 239.395 527.822 247.931C485.438 252.673 402.075 244.414 330.029 164.11C241.223 65.1271 182.692 74.5241 85.814 84.4828C41.4114 69.4282 85.814 95.2358 7.10025 37.1687V630.744H768V322.026Z" stroke="#FFE7BC"/>
</svg>
