<svg width="379" height="363" viewBox="0 0 379 363" fill="none" xmlns="http://www.w3.org/2000/svg">
<path d="M93.3912 4.99756C39.288 -14.6555 26.3912 29.9976 1.39117 29.9977V238.998H378.391V12.9976C319.391 22.0226 343.89 30.0882 273.391 12.9976C240.391 4.99761 253.391 45.837 203.391 60.9976C154.391 66.9976 153.487 26.8274 93.3912 4.99756Z" fill="#355BA5"/>
<path d="M275.728 85.8369C329.831 66.1839 342.391 52.9976 378.391 69.9976V278.998H1.39117V52.9976C60.3912 62.0226 35.8928 70.0881 106.391 52.9976C139.391 44.9976 126.391 85.8369 176.391 100.998C225.391 106.998 215.633 107.667 275.728 85.8369Z" fill="#88A5DE"/>
<path d="M1.38311 196.732C10.3494 174.007 40.0665 127.409 83.3094 146.998C114.674 161.206 119.155 161.609 119.604 161.282C119.383 160.94 119.77 161.161 119.604 161.282C119.7 161.431 119.911 161.687 120.332 162.103C141.335 164.277 182.633 160.375 218.274 122.983C262.206 76.8927 291.993 89.4406 340 94C361.99 86.9673 339.636 103.058 378.596 76L378.596 339.72L1.38309 339.72L1.38311 196.732Z" fill="#DEBF88"/>
<path d="M1.39117 218.453C10.3912 195.741 40.1774 149.186 83.3912 168.839C114.735 183.094 119.215 183.505 119.664 183.178C119.444 182.835 119.831 183.057 119.664 183.178C119.76 183.327 119.971 183.583 120.391 184C141.391 186.205 182.695 182.365 218.391 145.025C262.391 99.0001 291.391 103.369 339.391 108C361.391 101 339.391 113 378.391 86V362H1.39117V218.453Z" fill="#FFE7BC"/>
<path d="M1.39117 218.453C10.3912 195.741 40.1774 149.186 83.3912 168.839C131.391 190.669 116.391 180.031 120.391 184C141.391 186.205 182.695 182.365 218.391 145.025C262.391 99.0001 291.391 103.369 339.391 108C361.391 101 339.391 113 378.391 86V362H1.39117V218.453Z" stroke="#FFE7BC"/>
<circle cx="296.891" cy="223.5" r="2.5" fill="#DEBF88"/>
<circle cx="54.2402" cy="311.792" r="2.5" transform="rotate(50.1447 54.2402 311.792)" fill="#DEBF88"/>
<circle cx="49.2402" cy="330.792" r="2.5" transform="rotate(50.1447 49.2402 330.792)" fill="#DEBF88"/>
<circle cx="294.391" cy="236" r="4" fill="#DEBF88"/>
<circle cx="43.0422" cy="317.883" r="4" transform="rotate(50.1447 43.0422 317.883)" fill="#DEBF88"/>
<circle cx="308.891" cy="229.5" r="5.5" fill="#DEBF88"/>
<circle cx="57.3244" cy="324.849" r="5.5" transform="rotate(50.1447 57.3244 324.849)" fill="#DEBF88"/>
</svg>
